<?xml version="1.0" encoding="UTF-8" standalone="no"?>
<!-- Created with Inkscape (http://www.inkscape.org/) -->

<svg
   width="44.471661mm"
   height="16.736952mm"
   viewBox="0 0 44.471661 16.736952"
   version="1.1"
   id="svg1"
   xmlns="http://www.w3.org/2000/svg"
   xmlns:svg="http://www.w3.org/2000/svg">
  <defs
     id="defs1">
    <clipPath
       clipPathUnits="userSpaceOnUse"
       id="clipPath5-0">
      <path
         d="m 541.829,796.812 h 23.624 v 20.911 h -23.624 z"
         transform="translate(-552.71002,-796.89762)"
         id="path5-2" />
    </clipPath>
    <clipPath
       clipPathUnits="userSpaceOnUse"
       id="clipPath7-6">
      <path
         d="m 541.829,796.812 h 23.624 v 20.911 h -23.624 z"
         transform="translate(-554.57321,-796.89762)"
         id="path7-3" />
    </clipPath>
    <clipPath
       clipPathUnits="userSpaceOnUse"
       id="clipPath9-8">
      <path
         d="m 541.829,796.812 h 23.624 v 20.911 h -23.624 z"
         transform="translate(-553.63672,-817.72382)"
         id="path9-1" />
    </clipPath>
  </defs>
  <g
     id="layer1"
     transform="translate(-16.404167,-6.3499996)">
    <path
       id="path2"
       d="m 19.087207,21.06124 c 0.56638,0 0.97152,-0.1323 1.33946,-0.35967 v -1.31052 c -0.29353,0.16123 -0.59118,0.23978 -0.92191,0.23978 -0.50023,0 -0.79788,-0.25218 -0.79788,-0.8723 v -3.42718 h 1.74459 v -1.37666 h -1.74459 v -1.91823 h -1.48002 v 1.91823 h -0.82269 v 1.37666 h 0.82269 v 3.67937 c 0,1.53375 0.76895,2.05052 1.86035,2.05052 z m 5.22346,0.0372 c 1.19062,0 2.03812,-0.51263 2.64996,-1.30638 l -0.87229,-0.83509 c -0.51264,0.54157 -1.0294,0.83509 -1.75287,0.83509 -0.95498,0 -1.70325,-0.63665 -1.86448,-1.77353 h 4.75836 c 0.0124,-0.16123 0.0248,-0.30593 0.0248,-0.45062 0,-2.01331 -1.04179,-3.75791 -3.10058,-3.75791 -1.85209,0 -3.16674,1.64124 -3.16674,3.63802 v 0.0248 c 0,2.15801 1.44694,3.62562 3.32383,3.62562 z m -1.85209,-4.14238 c 0.13643,-1.08314 0.77308,-1.83555 1.68259,-1.83555 0.97978,0 1.54202,0.80616 1.64124,1.83555 z m 8.66924,4.14238 c 1.26504,0 2.01331,-0.54157 2.64997,-1.30638 l -0.8971,-0.95498 c -0.46302,0.51677 -0.97979,0.8599 -1.67845,0.8599 -1.14102,0 -1.93891,-0.99219 -1.93891,-2.23656 v -0.0248 c 0,-1.21956 0.79789,-2.22415 1.87689,-2.22415 0.73588,0 1.21543,0.35553 1.66605,0.8723 l 0.93431,-1.07074 c -0.61185,-0.7152 -1.37252,-1.20303 -2.58795,-1.20303 -1.95131,0 -3.37344,1.66605 -3.37344,3.65042 v 0.0289 c 0,1.98438 1.42213,3.60908 3.34863,3.60908 z m 3.39411,-0.15709 h 1.48415 V 16.9974 c 0,-1.08314 0.60358,-1.73219 1.45934,-1.73219 0.8847,0 1.38493,0.62011 1.38493,1.70739 v 3.96875 h 1.48414 v -4.46071 c 0,-1.61231 -0.84336,-2.67064 -2.3027,-2.67064 -1.00872,0 -1.60817,0.56637 -2.02571,1.21543 v -3.74551 h -1.48415 z m 0,0"
       style="fill:#2252a1;fill-opacity:1;fill-rule:nonzero;stroke:none;stroke-width:0.366496"
       aria-label="tech" />
    <path
       id="path3"
       d="m 44.392127,23.08695 c 1.16582,0 2.07532,-0.30592 2.66236,-0.94258 0.54158,-0.58291 0.82269,-1.4552 0.82269,-2.63343 v -5.55625 h -1.48414 v 1.04593 C 45.888667,14.35157 45.214817,13.81 44.123407,13.81 c -1.50895,0 -2.94349,1.21543 -2.94349,3.28249 v 0.0248 c 0,2.05052 1.42213,3.27008 2.94349,3.27008 1.0666,0 1.74046,-0.52917 2.28203,-1.28571 v 0.54157 c 0,1.4056 -0.72347,2.14561 -2.04639,2.14561 -0.8847,0 -1.60817,-0.27699 -2.30683,-0.74001 l -0.55398,1.20303 c 0.8351,0.54157 1.82728,0.83509 2.89389,0.83509 z m 0.12402,-4.06383 c -1.01699,0 -1.83968,-0.78135 -1.83968,-1.91823 v -0.0289 c 0,-1.14929 0.81029,-1.91823 1.83968,-1.91823 1.02939,0 1.90169,0.78134 1.90169,1.91823 v 0.0289 c 0,1.13688 -0.8723,1.91823 -1.90169,1.91823 z m 4.60747,1.91823 h 1.48415 v -2.65824 c 0,-1.85622 0.9095,-2.76572 2.20761,-2.76572 h 0.0868 V 13.8224 c -1.14102,-0.0537 -1.88929,0.66146 -2.29443,1.70739 v -1.5751 h -1.48415 z m 7.53029,0.15709 c 1.99678,0 3.46852,-1.65364 3.46852,-3.63802 v -0.0248 c 0,-2.00091 -1.45934,-3.62562 -3.44372,-3.62562 -1.9885,0 -3.46025,1.65365 -3.46025,3.65042 v 0.0289 c 0,1.98438 1.45934,3.60908 3.43545,3.60908 z m 0.0248,-1.40146 c -1.15342,0 -1.97611,-1.01699 -1.97611,-2.23656 v -0.0248 c 0,-1.21956 0.76068,-2.22415 1.95131,-2.22415 1.16582,0 1.98437,1.01699 1.98437,2.24895 v 0.0289 c 0,1.20303 -0.76068,2.20762 -1.95957,2.20762 z m 0,0"
       style="fill:#28a84a;fill-opacity:1;fill-rule:nonzero;stroke:none;stroke-width:0.366496"
       aria-label="gro" />
    <path
       id="path4"
       d="M 0,0 V -0.079 H 0.009 C 0.006,-0.052 0.003,-0.027 0,0 m -10.881,15.361 c 0,0 0.773,-9.464 6.181,-11.073 C -0.974,3.179 -0.151,1.153 0,0 v 4.288 c 0,0 0.193,4.249 -5.279,7.339 -5.473,3.091 -5.602,3.734 -5.602,3.734"
       style="fill:#28a84a;fill-opacity:1;fill-rule:evenodd;stroke:none"
       transform="matrix(0.35277776,0,0,-0.35277776,56.380387,13.69673)"
       clip-path="url(#clipPath5-0)" />
    <path
       id="path6"
       d="M 0,0 C -0.004,-0.029 -0.007,-0.057 -0.01,-0.085 H 0 Z m 10.88,15.361 c 0,0 -0.129,-0.643 -5.601,-3.734 C -0.193,8.537 0,4.288 0,4.288 V 0 c 0.151,1.153 0.973,3.179 4.699,4.288 5.408,1.609 6.181,11.073 6.181,11.073"
       style="fill:#28a84a;fill-opacity:1;fill-rule:evenodd;stroke:none"
       transform="matrix(0.35277776,0,0,-0.35277776,57.037677,13.69673)"
       clip-path="url(#clipPath7-6)" />
    <path
       id="path8"
       d="m 0,0 c 0,0 -3.281,-2.87 -2.926,-7.361 0.245,-3.086 1.917,-2.824 2.926,-7.362 1.008,4.538 2.679,4.276 2.924,7.362 C 3.28,-2.87 0,0 0,0"
       style="fill:#28a84a;fill-opacity:1;fill-rule:evenodd;stroke:none"
       transform="matrix(0.35277776,0,0,-0.35277776,56.707297,6.34971)"
       clip-path="url(#clipPath9-8)" />
  </g>
</svg>
